<?xml version="1.0" encoding="utf-8"?>
<svg version="1.1" xmlns:xlink="http://www.w3.org/1999/xlink" width="24px" height="20px" xmlns="http://www.w3.org/2000/svg">
  <g transform="matrix(1 0 0 1 -113 -2204 )">
    <path d="M 16.888392857142858 8.892025405786875  C 17.058035714285715 8.713243942601741  17.142857142857142 8.501529051987767  17.142857142857142 8.256880733944953  C 17.142857142857142 8.012232415902139  17.058035714285715 7.800517525288166  16.888392857142858 7.621736062103035  C 16.71875 7.442954598917901  16.517857142857146 7.3535638673253345  16.285714285714285 7.3535638673253345  C 14.75 7.3535638673253345  13.330357142857144 7.586450247000707  12.026785714285714 8.052223006351447  C 10.723214285714286 8.517995765702189  9.564732142857144 9.14843566219713  8.551339285714285 9.943542695836275  C 7.537946428571429 10.738649729475416  6.486607142857142 11.771347918136907  5.397321428571429 13.04163726182075  C 5.227678571428571 13.239237826393788  5.142857142857142 13.450952717007763  5.142857142857142 13.676781933662667  C 5.142857142857142 13.92143025170548  5.227678571428571 14.133145142319453  5.397321428571429 14.311926605504585  C 5.5669642857142865 14.490708068689722  5.767857142857143 14.580098800282286  6 14.580098800282286  C 6.214285714285715 14.580098800282286  6.415178571428571 14.490708068689722  6.602678571428571 14.311926605504585  C 6.84375 14.08609738884968  7.174107142857144 13.752058339214301  7.59375 13.309809456598447  C 8.013392857142858 12.86756057398259  8.3125 12.5570454010821  8.491071428571429 12.378263937896964  C 9.714285714285715 11.211479651846624  10.91294642857143 10.383439190778638  12.08705357142857 9.894142554693012  C 13.261160714285715 9.404845918607387  14.660714285714285 9.160197600564572  16.285714285714285 9.160197600564572  C 16.517857142857146 9.160197600564572  16.71875 9.070806868972008  16.888392857142858 8.892025405786875  Z M 23.892857142857142 4.107268877911078  C 23.964285714285715 4.65302281816043  24 5.1046812514702395  24 5.462244177840507  C 24 6.356151493766172  23.91071428571429 7.264173135732768  23.732142857142858 8.186309103740296  C 23.321428571428573 10.294048459186072  22.49776785714286 12.095977417078334  21.261160714285715 13.592095977417078  C 20.024553571428573 15.088214537755821  18.42857142857143 16.349094330745707  16.473214285714285 17.374735356386733  C 14.5625 18.390966831333802  12.607142857142858 18.89908256880734  10.607142857142858 18.89908256880734  C 9.285714285714286 18.89908256880734  8.008928571428571 18.67795812749941  6.776785714285715 18.23570924488356  C 6.642857142857143 18.188661491413786  6.25 17.991060926840746  5.598214285714286 17.64290755116443  C 4.946428571428572 17.29475417548812  4.517857142857143 17.120677487649964  4.3125 17.120677487649964  C 4.169642857142858 17.120677487649964  3.993303571428571 17.27123029875323  3.7834821428571423 17.572335920959773  C 3.5736607142857153 17.87344154316631  3.3727678571428568 18.202775817454718  3.1808035714285716 18.560338743824982  C 2.988839285714286 18.91790167019525  2.754464285714286 19.247235944483652  2.477678571428571 19.54834156669019  C 2.200892857142857 19.84944718889673  1.9330357142857144 20  1.6741071428571428 20  C 1.2901785714285716 20  1.0066964285714286 19.9176664314279  0.8236607142857144 19.752999294283697  C 0.640625 19.588332157139497  0.4375 19.308398023994357  0.21428571428571427 18.913196894848273  C 0.19642857142857145 18.875558692072453  0.16964285714285715 18.823806163255703  0.13392857142857142 18.757939308398022  C 0.09821428571428573 18.69207245354034  0.07366071428571429 18.64502470007057  0.06026785714285715 18.616796047988707  C 0.046875 18.588567395906846  0.033482142857142856 18.543872030110563  0.020089285714285712 18.482709950599858  C 0.006696428571428571 18.421547871089157  0 18.358033403904965  0 18.292166549047284  C 0 17.96283227475888  0.13839285714285712 17.61703128675606  0.41517857142857145 17.254763585038816  C 0.6919642857142858 16.89249588332157  0.9955357142857144 16.584333098094564  1.3258928571428572 16.3302752293578  C 1.65625 16.07621736062103  1.9598214285714286 15.812749941190308  2.236607142857143 15.53987297106563  C 2.5133928571428577 15.266996000940953  2.6517857142857144 15.041166784286048  2.6517857142857144 14.862385321100916  C 2.6517857142857144 14.8247471183251  2.589285714285715 14.645965655139966  2.4642857142857144 14.326040931545519  C 2.3392857142857144 14.00611620795107  2.2678571428571432 13.799106092684072  2.25 13.70501058574453  C 2.169642857142857 13.225123500352858  2.1294642857142856 12.73582686426723  2.1294642857142856 12.237120677487649  C 2.1294642857142856 11.155022347682896  2.3236607142857144 10.119971771347917  2.712053571428571 9.13196894848271  C 3.100446428571429 8.143966125617501  3.631696428571429 7.275935074100213  4.305803571428571 6.527875793930839  C 4.979910714285715 5.779816513761469  5.741071428571429 5.125852740531638  6.589285714285715 4.565984474241356  C 7.437500000000001 4.006116207951069  8.348214285714286 3.5568101623147497  9.321428571428571 3.2180663373323926  C 9.8125 3.048694424841214  10.459821428571429 2.9287226534932964  11.263392857142858 2.8581510232886376  C 12.066964285714286 2.787579393083981  12.868303571428571 2.745236414961185  13.667410714285714 2.7311220889202548  C 14.466517857142858 2.717007762879322  15.263392857142858 2.688779110797459  16.058035714285715 2.6464361326746655  C 16.852678571428573 2.6040931545518697  17.58258928571429 2.4911785462244174  18.247767857142858 2.3076923076923084  C 18.91294642857143 2.124206069160197  19.419642857142858 1.8583862620559843  19.767857142857142 1.5102328863796743  L 20.16294642857143 1.0938602681721954  C 20.16294642857143 1.0938602681721954  20.29464285714286 0.9621265584568306  20.558035714285715 0.6986591390261121  C 20.821428571428577 0.43519171959538916  20.941964285714292 0.34109621265584256  20.919642857142858 0.41637261820748117  C 20.89732142857143 0.49164902375911534  21.060267857142858 0.41637261820748117  21.408482142857142 0.19054340155257643  C 21.75669642857143 -0.03528581510233053  21.950892857142858 -0.056457304163726185  21.99107142857143 0.1270289343683828  C 22.339285714285715 0.1270289343683828  22.654017857142858 0.34344860032933244  22.935267857142858 0.7762879322512339  C 23.216517857142858 1.2091272641731332  23.42857142857143 1.736062103034579  23.57142857142857 2.357092448835567  C 23.71428571428572 2.978122794636555  23.821428571428577 3.561514937661725  23.892857142857142 4.107268877911078  Z " fill-rule="nonzero" fill="#77be05" stroke="none" fill-opacity="0.9921568627450981" transform="matrix(1 0 0 1 113 2204 )" />
  </g>
</svg>